# xmcd
#
# Track frame offsets: 
#        150
#        19423
#        44129
#        63344
#        76975
#        101122
#        120601
#        143335
#        158525
#        178217
#        197190
#        216524
#
# Disc length: 3177 seconds
#
# Revision: 0
# Processed by: cddbd v1.5.2PL0 Copyright (c) Steve Scherf et al.
# Submitted via: ExactAudioCopy v1.3
#
DISCID=ae0c670c
DTITLE=LAGOVELI - PILOTEANDO EN ESTE INFIERNO
DYEAR=2016
DGENRE=Rock
TTITLE0=SOLA
TTITLE1=COMPRENDE
TTITLE2=SER HUMANO
TTITLE3=BARRIOS BAJOS
TTITLE4=NADA EN ESPECIAL
TTITLE5=3D
TTITLE6=HOY
TTITLE7=ABLANDA
TTITLE8=PARA VOS...
TTITLE9=LLAO-LLAO
TTITLE10=NO PUDE
TTITLE11=CHAU NENA
EXTD=
EXTT0=
EXTT1=
EXTT2=
EXTT3=
EXTT4=
EXTT5=
EXTT6=
EXTT7=
EXTT8=
EXTT9=
EXTT10=
EXTT11=
PLAYORDER=
